<svg xmlns="http://www.w3.org/2000/svg" style="display:none" aria-hidden="true"><symbol id="tool-ai-chat" viewBox="0 0 24 24" fill="none" stroke="currentColor" stroke-width="1.5" stroke-linecap="round" stroke-linejoin="round"><path d="M5 4h14a2 2 0 0 1 2 2v9a2 2 0 0 1-2 2h-7l-5 4v-4H5a2 2 0 0 1-2-2V6a2 2 0 0 1 2-2Z"></path><path d="M8 10v.01"></path><path d="M12 10v.01"></path><path d="M16 10v.01"></path></symbol><symbol id="tool-base64-codec" viewBox="0 0 24 24" fill="none" stroke="currentColor" stroke-width="1.5" stroke-linecap="round" stroke-linejoin="round"><path d="m8 6-6 6 6 6"></path><path d="m16 6 6 6-6 6"></path><path d="M14 4 10 20"></path></symbol><symbol id="tool-coin-flip" viewBox="0 0 24 24" fill="none" stroke="currentColor" stroke-width="1.5" stroke-linecap="round" stroke-linejoin="round"><circle cx="12" cy="14" r="5"></circle><path d="M12 11.2L12.71 13.03L14.66 13.14L13.14 14.37L13.65 16.27L12 15.2L10.35 16.27L10.86 14.37L9.34 13.14L11.3 13.03Z" fill="currentColor" stroke="none"></path><path d="M5 6c2-2 5-3 7-3s5 1 7 3"></path><path d="M5 6V3.5"></path><path d="M5 6h2.5"></path></symbol><symbol id="tool-color-picker" viewBox="0 0 24 24" fill="none" stroke="currentColor" stroke-width="1.5" stroke-linecap="round" stroke-linejoin="round"><path d="m2 22 1-1h3l9-9"></path><path d="M3 21v-3l9-9"></path><path d="m15 6 3.4-3.4a2.1 2.1 0 1 1 3 3L18 9l.4.4a2.1 2.1 0 1 1-3 3l-3.8-3.8a2.1 2.1 0 1 1 3-3l.4.4Z"></path></symbol><symbol id="tool-countdown-timer" viewBox="0 0 24 24" fill="none" stroke="currentColor" stroke-width="1.5" stroke-linecap="round" stroke-linejoin="round"><circle cx="12" cy="14" r="7"></circle><path d="M12 11v3l2 2"></path><path d="M10 3h4"></path><path d="M12 3v3"></path><path d="m18 6 1.5-1.5"></path></symbol><symbol id="tool-decision-wheel" viewBox="0 0 24 24" fill="none" stroke="currentColor" stroke-width="1.5" stroke-linecap="round" stroke-linejoin="round"><circle cx="12" cy="13" r="7"></circle><path d="M5 13h14"></path><path d="M12 6v14"></path><path d="M12 3v3l-1.5-1.5z" fill="currentColor" stroke="none"></path><path d="M12 3v3l1.5-1.5z" fill="currentColor" stroke="none"></path></symbol><symbol id="tool-flappy" viewBox="0 0 24 24" fill="none" stroke="currentColor" stroke-width="1.5" stroke-linecap="round" stroke-linejoin="round"><path d="M16 7h.01"></path><path d="M3.4 18H12a8 8 0 0 0 8-8V7a4 4 0 0 0-7.28-2.3L2 20"></path><path d="m20 7 2 .5-2 .5"></path><path d="M10 18v3"></path><path d="M14 17.75V21"></path><path d="M7 18a6 6 0 0 0 3.84-10.61"></path></symbol><symbol id="tool-invoice" viewBox="0 0 24 24" fill="none" stroke="currentColor" stroke-width="1.5" stroke-linecap="round" stroke-linejoin="round"><path d="M6 2h9l4 4v14a1 1 0 0 1-1 1H6a1 1 0 0 1-1-1V3a1 1 0 0 1 1-1Z"></path><path d="M14 2v5h5"></path><path d="M9 13h6"></path><path d="M9 17h4"></path><path d="M12 8.5v3"></path><path d="M13.5 9.5h-2a.8.8 0 0 0 0 1.5h1a.8.8 0 0 1 0 1.5h-2"></path></symbol><symbol id="tool-markdown-pdf" viewBox="0 0 24 24" fill="none" stroke="currentColor" stroke-width="1.5" stroke-linecap="round" stroke-linejoin="round"><path d="M15 2H6a2 2 0 0 0-2 2v16a2 2 0 0 0 2 2h12a2 2 0 0 0 2-2V7Z"></path><path d="M14 2v4a2 2 0 0 0 2 2h4"></path><path d="M12 18v-6"></path><path d="m9 15 3 3 3-3"></path></symbol><symbol id="tool-minesweeper" viewBox="0 0 24 24" fill="none" stroke="currentColor" stroke-width="1.5" stroke-linecap="round" stroke-linejoin="round"><path d="M7 21V4"></path><path d="M7 4h10l-3 3.5L17 11H7"></path><path d="M3 21h18"></path></symbol><symbol id="tool-pong" viewBox="0 0 24 24" fill="none" stroke="currentColor" stroke-width="1.5" stroke-linecap="round" stroke-linejoin="round"><rect x="3" y="3.5" width="5.2" height="2.6" rx="0.6"></rect><rect x="9.4" y="3.5" width="5.2" height="2.6" rx="0.6"></rect><rect x="15.8" y="3.5" width="5.2" height="2.6" rx="0.6"></rect><circle cx="12" cy="13" r="1.4" fill="currentColor" stroke="none"></circle><rect x="7.5" y="19" width="9" height="2.4" rx="1.2"></rect></symbol><symbol id="tool-qr-scanner" viewBox="0 0 24 24" fill="none" stroke="currentColor" stroke-width="1.5" stroke-linecap="round" stroke-linejoin="round"><path d="M4 8V5a1 1 0 0 1 1-1h3"></path><path d="M16 4h3a1 1 0 0 1 1 1v3"></path><path d="M20 16v3a1 1 0 0 1-1 1h-3"></path><path d="M8 20H5a1 1 0 0 1-1-1v-3"></path><rect x="9" y="9" width="6" height="6" rx=".5"></rect><rect x="11" y="11" width="2" height="2" fill="currentColor" stroke="none"></rect></symbol><symbol id="tool-quick-notes" viewBox="0 0 24 24" fill="none" stroke="currentColor" stroke-width="1.5" stroke-linecap="round" stroke-linejoin="round"><path d="M12 3H5a2 2 0 0 0-2 2v14a2 2 0 0 0 2 2h14a2 2 0 0 0 2-2v-7"></path><path d="M18.4 2.6a1 1 0 0 1 3 3l-9 9a2 2 0 0 1-.9.5l-2.9.8a.5.5 0 0 1-.6-.6l.8-2.9a2 2 0 0 1 .5-.9z"></path></symbol><symbol id="tool-quote" viewBox="0 0 24 24" fill="none" stroke="currentColor" stroke-width="1.5" stroke-linecap="round" stroke-linejoin="round"><path d="M16 3a2 2 0 0 0-2 2v6a2 2 0 0 0 2 2 1 1 0 0 1 1 1v1a2 2 0 0 1-2 2 1 1 0 0 0-1 1v2a1 1 0 0 0 1 1 6 6 0 0 0 6-6V5a2 2 0 0 0-2-2z"></path><path d="M5 3a2 2 0 0 0-2 2v6a2 2 0 0 0 2 2 1 1 0 0 1 1 1v1a2 2 0 0 1-2 2 1 1 0 0 0-1 1v2a1 1 0 0 0 1 1 6 6 0 0 0 6-6V5a2 2 0 0 0-2-2z"></path></symbol><symbol id="tool-radio" viewBox="0 0 24 24" fill="none" stroke="currentColor" stroke-width="1.5" stroke-linecap="round" stroke-linejoin="round"><path d="M4.93 19.07A10 10 0 0 1 4.93 4.93"></path><path d="M7.76 16.24a6 6 0 0 1 0-8.48"></path><path d="M16.24 7.76a6 6 0 0 1 0 8.48"></path><path d="M19.07 4.93a10 10 0 0 1 0 14.14"></path><circle cx="12" cy="12" r="2"></circle></symbol><symbol id="tool-search" viewBox="0 0 24 24" fill="none" stroke="currentColor" stroke-width="1.5" stroke-linecap="round" stroke-linejoin="round"><circle cx="11" cy="11" r="6"></circle><path d="m20 20-4.3-4.3"></path></symbol><symbol id="tool-step-counter" viewBox="0 0 24 24" fill="none" stroke="currentColor" stroke-width="1.5" stroke-linecap="round" stroke-linejoin="round"><path d="M4 16v-2.38C4 11.5 2.97 10.5 3 8c.03-2.72 1.49-6 4.5-6C9.37 2 10 3.8 10 5.5c0 3.11-2 5.66-2 8.68V16a2 2 0 1 1-4 0Z"></path><path d="M20 20v-2.38c0-2.12 1.03-3.12 1-5.62-.03-2.72-1.49-6-4.5-6C14.63 6 14 7.8 14 9.5c0 3.11 2 5.66 2 8.68V20a2 2 0 1 0 4 0Z"></path><path d="M16 17h4"></path><path d="M4 13h4"></path></symbol><symbol id="tool-tetris" viewBox="0 0 24 24" fill="none" stroke="currentColor" stroke-width="1.5" stroke-linecap="round" stroke-linejoin="round"><path d="M4 8h16v4h-6v8H10v-8H4Z"></path></symbol></svg>